<?xml version="1.0" encoding="UTF-8" ?>
<svg version="1.1" width="32" height="32" xmlns="http://www.w3.org/2000/svg" shape-rendering="crispEdges">
<rect x="19" y="1" width="1" height="1" fill="#000000" />
<rect x="20" y="1" width="1" height="1" fill="#000000" />
<rect x="18" y="2" width="1" height="1" fill="#000000" />
<rect x="19" y="2" width="1" height="1" fill="#353332" />
<rect x="20" y="2" width="1" height="1" fill="#353332" />
<rect x="21" y="2" width="1" height="1" fill="#000000" />
<rect x="17" y="3" width="1" height="1" fill="#000000" />
<rect x="18" y="3" width="1" height="1" fill="#C86556" />
<rect x="19" y="3" width="1" height="1" fill="#353332" />
<rect x="20" y="3" width="1" height="1" fill="#232528" />
<rect x="21" y="3" width="1" height="1" fill="#000000" />
<rect x="17" y="4" width="1" height="1" fill="#000000" />
<rect x="18" y="4" width="1" height="1" fill="#C86556" />
<rect x="19" y="4" width="1" height="1" fill="#854944" />
<rect x="20" y="4" width="1" height="1" fill="#000000" />
<rect x="17" y="5" width="1" height="1" fill="#000000" />
<rect x="18" y="5" width="1" height="1" fill="#C86556" />
<rect x="19" y="5" width="1" height="1" fill="#854944" />
<rect x="20" y="5" width="1" height="1" fill="#000000" />
<rect x="17" y="6" width="1" height="1" fill="#000000" />
<rect x="18" y="6" width="1" height="1" fill="#C86556" />
<rect x="19" y="6" width="1" height="1" fill="#854944" />
<rect x="20" y="6" width="1" height="1" fill="#000000" />
<rect x="17" y="7" width="1" height="1" fill="#000000" />
<rect x="18" y="7" width="1" height="1" fill="#C86556" />
<rect x="19" y="7" width="1" height="1" fill="#854944" />
<rect x="20" y="7" width="1" height="1" fill="#000000" />
<rect x="17" y="8" width="1" height="1" fill="#000000" />
<rect x="18" y="8" width="1" height="1" fill="#C86556" />
<rect x="19" y="8" width="1" height="1" fill="#854944" />
<rect x="20" y="8" width="1" height="1" fill="#000000" />
<rect x="16" y="9" width="1" height="1" fill="#000000" />
<rect x="17" y="9" width="1" height="1" fill="#C86556" />
<rect x="18" y="9" width="1" height="1" fill="#854944" />
<rect x="19" y="9" width="1" height="1" fill="#000000" />
<rect x="16" y="10" width="1" height="1" fill="#000000" />
<rect x="17" y="10" width="1" height="1" fill="#353332" />
<rect x="18" y="10" width="1" height="1" fill="#854944" />
<rect x="19" y="10" width="1" height="1" fill="#000000" />
<rect x="16" y="11" width="1" height="1" fill="#000000" />
<rect x="17" y="11" width="1" height="1" fill="#353332" />
<rect x="18" y="11" width="1" height="1" fill="#232528" />
<rect x="19" y="11" width="1" height="1" fill="#000000" />
<rect x="16" y="12" width="1" height="1" fill="#000000" />
<rect x="17" y="12" width="1" height="1" fill="#353332" />
<rect x="18" y="12" width="1" height="1" fill="#232528" />
<rect x="19" y="12" width="1" height="1" fill="#000000" />
<rect x="16" y="13" width="1" height="1" fill="#000000" />
<rect x="17" y="13" width="1" height="1" fill="#353332" />
<rect x="18" y="13" width="1" height="1" fill="#232528" />
<rect x="19" y="13" width="1" height="1" fill="#000000" />
<rect x="16" y="14" width="1" height="1" fill="#000000" />
<rect x="17" y="14" width="1" height="1" fill="#353332" />
<rect x="18" y="14" width="1" height="1" fill="#232528" />
<rect x="19" y="14" width="1" height="1" fill="#000000" />
<rect x="16" y="15" width="1" height="1" fill="#000000" />
<rect x="17" y="15" width="1" height="1" fill="#232528" />
<rect x="18" y="15" width="1" height="1" fill="#000000" />
<rect x="16" y="16" width="1" height="1" fill="#000000" />
<rect x="17" y="16" width="1" height="1" fill="#232528" />
<rect x="18" y="16" width="1" height="1" fill="#000000" />
<rect x="16" y="17" width="1" height="1" fill="#000000" />
<rect x="17" y="17" width="1" height="1" fill="#232528" />
<rect x="18" y="17" width="1" height="1" fill="#000000" />
<rect x="16" y="18" width="1" height="1" fill="#000000" />
<rect x="17" y="18" width="1" height="1" fill="#232528" />
<rect x="18" y="18" width="1" height="1" fill="#000000" />
<rect x="16" y="19" width="1" height="1" fill="#000000" />
<rect x="17" y="19" width="1" height="1" fill="#232528" />
<rect x="18" y="19" width="1" height="1" fill="#000000" />
<rect x="15" y="20" width="1" height="1" fill="#000000" />
<rect x="16" y="20" width="1" height="1" fill="#353332" />
<rect x="17" y="20" width="1" height="1" fill="#232528" />
<rect x="18" y="20" width="1" height="1" fill="#000000" />
<rect x="15" y="21" width="1" height="1" fill="#000000" />
<rect x="16" y="21" width="1" height="1" fill="#232528" />
<rect x="17" y="21" width="1" height="1" fill="#000000" />
<rect x="15" y="22" width="1" height="1" fill="#000000" />
<rect x="16" y="22" width="1" height="1" fill="#232528" />
<rect x="17" y="22" width="1" height="1" fill="#000000" />
<rect x="15" y="23" width="1" height="1" fill="#000000" />
<rect x="16" y="23" width="1" height="1" fill="#232528" />
<rect x="17" y="23" width="1" height="1" fill="#000000" />
<rect x="15" y="24" width="1" height="1" fill="#000000" />
<rect x="16" y="24" width="1" height="1" fill="#51606D" />
<rect x="17" y="24" width="1" height="1" fill="#000000" />
<rect x="14" y="25" width="1" height="1" fill="#000000" />
<rect x="15" y="25" width="1" height="1" fill="#000000" />
<rect x="16" y="25" width="1" height="1" fill="#7A858A" />
<rect x="17" y="25" width="1" height="1" fill="#51606D" />
<rect x="18" y="25" width="1" height="1" fill="#000000" />
<rect x="11" y="26" width="1" height="1" fill="#000000" />
<rect x="12" y="26" width="1" height="1" fill="#000000" />
<rect x="13" y="26" width="1" height="1" fill="#000000" />
<rect x="14" y="26" width="1" height="1" fill="#7A858A" />
<rect x="15" y="26" width="1" height="1" fill="#7A858A" />
<rect x="16" y="26" width="1" height="1" fill="#51606D" />
<rect x="17" y="26" width="1" height="1" fill="#7A858A" />
<rect x="18" y="26" width="1" height="1" fill="#51606D" />
<rect x="19" y="26" width="1" height="1" fill="#000000" />
<rect x="10" y="27" width="1" height="1" fill="#000000" />
<rect x="11" y="27" width="1" height="1" fill="#51606D" />
<rect x="12" y="27" width="1" height="1" fill="#7A858A" />
<rect x="13" y="27" width="1" height="1" fill="#7A858A" />
<rect x="14" y="27" width="1" height="1" fill="#51606D" />
<rect x="15" y="27" width="1" height="1" fill="#51606D" />
<rect x="16" y="27" width="1" height="1" fill="#7A858A" />
<rect x="17" y="27" width="1" height="1" fill="#7A858A" />
<rect x="18" y="27" width="1" height="1" fill="#51606D" />
<rect x="19" y="27" width="1" height="1" fill="#000000" />
<rect x="10" y="28" width="1" height="1" fill="#000000" />
<rect x="11" y="28" width="1" height="1" fill="#7A858A" />
<rect x="12" y="28" width="1" height="1" fill="#51606D" />
<rect x="13" y="28" width="1" height="1" fill="#51606D" />
<rect x="14" y="28" width="1" height="1" fill="#7A858A" />
<rect x="15" y="28" width="1" height="1" fill="#7A858A" />
<rect x="16" y="28" width="1" height="1" fill="#51606D" />
<rect x="17" y="28" width="1" height="1" fill="#51606D" />
<rect x="18" y="28" width="1" height="1" fill="#000000" />
<rect x="11" y="29" width="1" height="1" fill="#000000" />
<rect x="12" y="29" width="1" height="1" fill="#7A858A" />
<rect x="13" y="29" width="1" height="1" fill="#7A858A" />
<rect x="14" y="29" width="1" height="1" fill="#51606D" />
<rect x="15" y="29" width="1" height="1" fill="#000000" />
<rect x="16" y="29" width="1" height="1" fill="#000000" />
<rect x="17" y="29" width="1" height="1" fill="#000000" />
<rect x="12" y="30" width="1" height="1" fill="#000000" />
<rect x="13" y="30" width="1" height="1" fill="#000000" />
<rect x="14" y="30" width="1" height="1" fill="#000000" />
</svg>